<?xml version="1.0" encoding="utf-8"?>
<!-- Generator: Adobe Illustrator 24.0.1, SVG Export Plug-In . SVG Version: 6.00 Build 0)  -->
<svg version="1.1" id="Layer_1" xmlns="http://www.w3.org/2000/svg" xmlns:xlink="http://www.w3.org/1999/xlink" x="0px" y="0px"
	 viewBox="0 0 671.3 736.5" style="enable-background:new 0 0 671.3 736.5;" xml:space="preserve">
<style type="text/css">
	.st0{fill:#FFFFFF;}
</style>
<g>
	<path class="st0" d="M667,457.9c-2.7-10.1-6.6-19.8-11.7-28.8c10.4-18.5,16-39.6,16-60.9c0-21.4-5.5-42.4-16-61
		c10.3-18.3,15.8-39.1,15.9-60.1c0.2-22.1-5.6-43.9-16.6-63c-21.9-37.9-62.5-61.7-106.3-62.2c-10.7-18-25.9-33.2-44-43.8
		c-18.6-11-39.9-16.9-61.6-17.1c-10.7-18-26-33.2-44.1-43.8C379.5,5.9,357.8,0,335.7,0c-22.1,0-43.9,5.9-62.9,17.1
		c-18.1,10.7-33.3,25.8-44.1,43.8c-21.7,0.2-43,6.2-61.6,17.2c-18.1,10.7-33.3,25.8-44,43.8c-43.8,0.6-84.4,24.3-106.3,62.2
		c-16.6,28.8-21,62.3-12.4,94.4c2.7,10.1,6.6,19.7,11.7,28.8C5.5,325.8,0,346.9,0,368.2c0,21.4,5.5,42.4,16,60.9
		c-5.1,9-9,18.7-11.7,28.8c-8.6,32.1-4.2,65.7,12.4,94.4c21.9,37.9,62.6,61.7,106.4,62.2c10.7,18,25.9,33.1,44,43.7
		c18.6,11,39.9,16.9,61.5,17.1c10.7,18.1,26,33.2,44.1,43.9c19,11.2,40.8,17.1,62.9,17.1c22.1,0,43.9-5.9,62.9-17.1
		c18.1-10.7,33.3-25.8,44.1-43.9c21.7-0.2,42.9-6.2,61.6-17.1c18.1-10.6,33.3-25.8,44-43.8c43.8-0.5,84.5-24.3,106.3-62.2
		C671.2,523.6,675.6,490,667,457.9z M551.2,609.4c9.5-17.9,14.6-38,14.6-58.3c0-20.4-5-40.5-14.6-58.5c20.7-0.7,40.9-6.6,58.7-17.1
		c17.2-10.1,31.8-24.4,42.4-41.2c4.2,7.9,7.5,16.3,9.8,25c8.3,30.8,4,62.9-11.9,90.5C629.7,585.3,592,607.9,551.2,609.4z M501.6,654
		c-17,10-36.3,15.6-56,16.3c9.5-17.9,14.5-37.9,14.5-58.3c0-13.5-2.1-26.6-6.3-39.1c8.8,9.9,19.1,18.3,30.7,25
		c17.6,10.2,37.5,15.9,57.7,16.6C532.1,630.7,518.1,644.3,501.6,654z M395.8,715.1c-18.2,10.7-39,16.3-60.1,16.3
		c-21.1,0-41.9-5.6-60.1-16.3c-16.6-9.7-30.7-23.4-40.9-39.7c20.6-0.7,40.8-6.6,58.6-17.1c17.3-10.2,31.9-24.5,42.5-41.4
		c10.6,17,25.2,31.2,42.5,41.4c17.7,10.5,37.9,16.4,58.5,17.1C426.5,691.7,412.4,705.4,395.8,715.1z M169.7,653.9
		c-16.5-9.7-30.4-23.3-40.6-39.4c20.2-0.7,40.1-6.4,57.6-16.6c11.6-6.7,21.9-15.1,30.7-24.9c-4.2,12.5-6.3,25.6-6.3,39
		c0,20.3,5,40.4,14.5,58.3C206,669.6,186.7,663.9,169.7,653.9z M21.2,549.8C5.2,522.2,1,490.1,9.3,459.3c2.3-8.7,5.6-17.1,9.8-25
		c10.6,16.9,25.2,31.1,42.4,41.3c17.8,10.5,38.1,16.4,58.7,17.1c-9.6,17.9-14.6,38.1-14.6,58.5c0,20.4,5,40.5,14.6,58.4
		C79.3,607.9,41.6,585.3,21.2,549.8z M120.1,127.1c-9.5,17.9-14.5,37.9-14.5,58.3c0,20.4,5,40.5,14.6,58.5
		c-20.7,0.7-40.9,6.6-58.8,17.1c-17.2,10.1-31.8,24.4-42.4,41.3c-4.2-7.9-7.4-16.3-9.8-25c-8.3-30.8-4-62.9,11.9-90.5
		C41.6,151.2,79.3,128.7,120.1,127.1z M169.7,82.5c17-10,36.3-15.6,56-16.4c-9.5,17.9-14.5,38-14.5,58.3c0,13.4,2.1,26.5,6.3,39
		c-8.8-9.8-19-18.2-30.7-24.9c-17.6-10.2-37.5-15.9-57.7-16.6C139.2,105.8,153.2,92.2,169.7,82.5z M275.6,21.4
		c18.2-10.6,38.9-16.3,60.1-16.3c21.1,0,41.9,5.6,60.1,16.3c16.6,9.7,30.7,23.4,40.9,39.6c-20.6,0.8-40.8,6.7-58.5,17.1
		c-17.2,10.2-31.9,24.5-42.5,41.4c-10.6-17-25.3-31.2-42.5-41.4c-17.7-10.5-37.9-16.4-58.5-17.1C244.9,44.7,259,31.1,275.6,21.4z
		 M501.6,82.5c16.5,9.7,30.5,23.3,40.7,39.5c-20.2,0.7-40.1,6.4-57.8,16.6c-11.7,6.7-21.9,15.1-30.7,25c4.2-12.6,6.3-25.7,6.3-39.1
		c0-20.4-5-40.4-14.5-58.3C465.3,66.8,484.6,72.5,501.6,82.5z M650.1,186.7c10.6,18.3,16.1,39.1,16,60.2
		c-0.1,19.2-4.9,38.3-13.9,55.3c-10.6-16.9-25.2-31.1-42.4-41.2c-17.8-10.5-38-16.4-58.7-17.1c9.6-17.9,14.6-38.1,14.6-58.5
		c0-20.3-5-40.4-14.5-58.3C592,128.7,629.7,151.3,650.1,186.7z M63.8,470.9c-17.2-10.2-31.7-24.6-41.9-41.8
		c10.3-17.4,25.2-32.1,42.9-42.3c16.9-9.7,36-15.2,55.3-15.9c-9.3,17.6-14.3,37.4-14.5,57.4c-0.2,20.6,4.8,41,14.4,59.2
		C100.3,486.7,80.9,481,63.8,470.9z M63.8,265.5c17.1-10.1,36.5-15.8,56.3-16.5c-9.7,18.2-14.7,38.6-14.5,59.3
		c0.2,20,5.2,39.7,14.5,57.4c-19.4-0.7-38.4-6.2-55.3-15.9c-17.8-10.3-32.6-24.9-43-42.4C32.1,290.1,46.6,275.7,63.8,265.5z
		 M606.4,349.7c-16.9,9.7-36,15.2-55.3,15.9c9.3-17.7,14.3-37.4,14.5-57.4c0.2-20.6-4.8-41-14.5-59.3c19.8,0.7,39.2,6.4,56.3,16.5
		c17.2,10.2,31.7,24.6,41.9,41.8C639,324.8,624.2,339.5,606.4,349.7z M428.8,529.6c-17.9-20.2-41.7-34-67.9-39.4c1-0.2,2-0.4,3-0.7
		l0.6-0.1c1-0.2,2.1-0.5,3.1-0.8l0.9-0.2c1-0.3,2-0.6,3-0.9l0.6-0.2c2.4-0.7,4.8-1.5,7.1-2.4l0.9-0.3c0.8-0.3,1.7-0.7,2.5-1
		c0.4-0.2,0.8-0.3,1.2-0.5c0.8-0.3,1.6-0.7,2.4-1c0.9-0.4,1.7-0.8,2.6-1.2l0.3-0.2c0.2-0.1,0.5-0.2,0.7-0.4c0.8-0.4,1.6-0.8,2.4-1.2
		l0.3-0.2c2.1-1.1,3.8-2,5.4-2.9c11.7-6.7,21.9-15.1,30.7-24.9C420.2,476.6,420.2,504,428.8,529.6z M428.6,285.4
		c-8.8-9.8-19-18.2-30.7-24.9c-1.6-0.9-3.4-1.9-5.5-3l-0.3-0.1c-0.8-0.4-1.6-0.8-2.4-1.2c-0.2-0.1-0.4-0.2-0.6-0.3l-0.3-0.1
		c-0.9-0.4-1.9-0.9-2.8-1.3c-0.8-0.3-1.5-0.7-2.3-1c-0.3-0.1-0.7-0.3-1-0.4l-0.2-0.1c-0.8-0.3-1.6-0.7-2.4-1l-0.1,0
		c-0.3-0.1-0.6-0.2-0.9-0.3c-2.3-0.9-4.7-1.7-7.1-2.4l-0.7-0.2c-1-0.3-1.9-0.6-2.9-0.8l-0.2-0.1c-0.2-0.1-0.5-0.1-0.7-0.2
		c-1-0.3-2-0.5-3-0.7l-0.7-0.2c-1-0.2-2-0.4-3-0.6c26.3-5.4,50.1-19.2,67.9-39.4C420.2,232.5,420.2,259.9,428.6,285.4z M244.7,214.1
		c-0.6-2.4-1.3-4.7-2.1-7.1c17.9,20.1,41.6,33.9,67.8,39.3c-1,0.2-2,0.4-3,0.6l-0.7,0.2c-1,0.2-1.9,0.5-2.9,0.7l-0.9,0.3
		c-1,0.3-1.9,0.5-2.9,0.8l-0.7,0.2c-2.4,0.7-4.8,1.5-7.1,2.4c-0.3,0.1-0.6,0.2-0.8,0.3l-0.2,0.1c-0.8,0.3-1.6,0.6-2.4,0.9l-0.4,0.2
		c-0.3,0.1-0.5,0.2-0.8,0.3c-0.7,0.3-1.5,0.6-2.2,1c-1,0.4-2,0.9-2.9,1.4l-0.9,0.4c-0.8,0.4-1.6,0.8-2.4,1.2l-0.2,0.1
		c-2.1,1.1-3.9,2-5.5,3c-11.7,6.7-21.9,15.1-30.7,25C250.3,262.6,251.1,237.7,244.7,214.1z M273.4,476c1.6,0.9,3.3,1.9,5.4,2.9
		l0.4,0.2c0.8,0.4,1.6,0.8,2.3,1.2c0.3,0.1,0.5,0.2,0.8,0.4l0.4,0.2c0.9,0.4,1.7,0.8,2.6,1.2c0.8,0.4,1.6,0.7,2.4,1.1
		c0.3,0.1,0.6,0.3,0.9,0.4l0.2,0.1c0.8,0.3,1.7,0.7,2.5,1l0.9,0.3c2.4,0.9,4.8,1.7,7.1,2.4c0.2,0.1,0.3,0.1,0.5,0.2l0.1,0
		c1,0.3,2,0.6,3,0.9l0.8,0.2c1,0.3,2.1,0.5,3.1,0.8l0.6,0.1c1,0.2,2,0.4,3,0.7c-26.2,5.4-50,19.2-67.8,39.3c0.8-2.3,1.5-4.7,2.1-7.1
		c6.3-23.6,5.5-48.4-2-71.3C251.5,460.9,261.8,469.3,273.4,476z M460.1,370.3c0-0.1,0-0.1,0-0.2c0-0.6,0-1.2,0-1.8
		c0-0.6,0-1.2,0-1.8v-0.2c-0.2-12.7-2.3-25.2-6.3-37.2c17.8,20,41.6,33.8,67.9,39.2c-26.3,5.4-50.1,19.1-67.9,39.2
		C457.8,395.4,460,382.9,460.1,370.3z M316.8,185.4c0,13.5,2.1,26.7,6.3,39.3c-8.8-9.9-19.1-18.3-30.8-25.1
		c-17.6-10.2-37.5-15.9-57.7-16.6c10.2-16.2,24.2-29.7,40.6-39.4c17-10,36.3-15.6,56-16.4C321.8,145,316.8,165,316.8,185.4z
		 M217,330.5l-0.3,1c-0.2,0.5-0.3,1-0.5,1.5l-0.2,0.5c-0.1,0.3-0.2,0.6-0.3,1c-0.1,0.4-0.2,0.9-0.4,1.3l0,0.1
		c-0.1,0.5-0.3,1.1-0.4,1.6c-0.1,0.3-0.1,0.6-0.2,0.9l-0.1,0.3c-0.2,0.6-0.3,1.2-0.4,1.9l-0.2,0.9c-0.2,0.7-0.3,1.5-0.5,2.2
		l-0.1,0.5c-0.2,0.9-0.3,1.7-0.5,2.5l0,0.1c-1.2,7-1.8,14.2-1.8,21.4c0,7.1,0.6,14.3,1.8,21.3l0,0.2c0.1,0.8,0.3,1.7,0.5,2.5
		l0.1,0.6c0.1,0.7,0.3,1.4,0.5,2.2l0.1,0.3c0,0.2,0.1,0.4,0.1,0.7c0.1,0.6,0.3,1.2,0.4,1.8l0.1,0.4c0.1,0.3,0.1,0.6,0.2,0.9
		c0.1,0.4,0.2,0.8,0.3,1.3l0.2,0.6c0.1,0.4,0.2,0.8,0.3,1.2c0.1,0.3,0.2,0.6,0.3,0.9l0.1,0.4c0.2,0.6,0.3,1.2,0.5,1.7l0.3,1
		c0.2,0.5,0.3,1,0.5,1.5c-17.8-20.1-41.6-33.8-67.9-39.2c26.3-5.4,50.1-19.1,67.9-39.2C217.4,329.5,217.2,330,217,330.5z
		 M323.1,511.9c-4.2,12.6-6.3,25.7-6.3,39.1c0,20.4,5,40.4,14.5,58.3c-19.7-0.7-39.1-6.3-56.1-16.3c-16.5-9.7-30.5-23.3-40.7-39.5
		c20.2-0.7,40.1-6.4,57.7-16.6C304,530.3,314.3,521.9,323.1,511.9z M546.6,363.1c-10.7-17.2-25.6-31.5-43.2-41.7
		c-11.5-6.6-24.2-11.4-37.2-14.1c33-6.8,62.2-26.9,80.4-55.8c9.2,17.5,14,37,13.8,56.7C560.3,327.3,555.6,346.2,546.6,363.1z
		 M453.8,285.6c4.2-12.6,6.3-25.8,6.3-39.3c0-20.3-5-40.4-14.5-58.3c39.3,1.5,75.8,22.5,96.7,55.8
		C508.3,245.1,476.3,260.3,453.8,285.6z M379,199.5c-11.6,6.7-21.9,15.1-30.7,24.9c4.2-12.5,6.3-25.6,6.3-39
		c0-20.3-5-40.4-14.5-58.3c19.7,0.7,39,6.4,56,16.4c16.5,9.7,30.4,23.3,40.6,39.4C416.5,183.6,396.6,189.4,379,199.5z M211.2,246.4
		c0,13.5,2.1,26.7,6.3,39.3C195,260.3,163,245.1,129,243.8c20.9-33.2,57.4-54.3,96.7-55.8C216.2,205.9,211.2,226,211.2,246.4z
		 M205.1,307.3c-13.1,2.7-25.7,7.5-37.2,14.1c-17.6,10.2-32.5,24.5-43.2,41.7c-8.9-16.9-13.7-35.8-13.9-54.9
		c-0.2-19.7,4.6-39.3,13.9-56.7C142.8,280.4,172,300.5,205.1,307.3z M124.6,373.4c10.7,17.2,25.6,31.5,43.2,41.7
		c11.4,6.6,24,11.4,37,14.1c-33,6.8-62.1,27-80.2,55.9c-9.2-17.5-14-37-13.8-56.7C111,409.2,115.7,390.3,124.6,373.4z M217.6,450.7
		c-4.2,12.6-6.4,25.8-6.4,39.4c0,20.3,5,40.4,14.5,58.3c-39.3-1.5-75.8-22.6-96.7-55.9C163,491.4,195.1,476.1,217.6,450.7z M396,593
		c-17,10-36.3,15.6-56,16.4c9.5-17.9,14.5-38,14.5-58.3c0-13.4-2.1-26.5-6.3-39c8.8,9.9,19.1,18.2,30.7,25
		c17.6,10.2,37.5,15.9,57.7,16.6C426.5,569.7,412.5,583.3,396,593z M460.1,490.2c0-13.6-2.1-26.8-6.4-39.4
		c22.5,25.3,54.5,40.6,88.6,41.8c-20.9,33.3-57.4,54.4-96.7,55.9C455.1,530.6,460.1,510.5,460.1,490.2z M466.5,429.2
		c13-2.7,25.5-7.5,37-14.1c17.6-10.2,32.5-24.5,43.2-41.7c8.9,16.9,13.7,35.8,13.9,54.9c0.2,19.7-4.6,39.2-13.8,56.7
		C528.5,456.1,499.4,436,466.5,429.2z M565.6,428.2c-0.2-20-5.2-39.7-14.5-57.4c19.4,0.7,38.4,6.2,55.3,15.9
		c17.8,10.3,32.6,24.9,42.9,42.3c-10.2,17.2-24.7,31.6-41.9,41.8c-17,10.1-36.4,15.8-56.3,16.5C560.8,469.2,565.8,448.8,565.6,428.2
		z M652.3,424c-10.7-17.1-25.6-31.4-43.3-41.6c-11.5-6.6-24.1-11.4-37.1-14.1c13-2.7,25.6-7.5,37.1-14.1
		c17.6-10.2,32.5-24.6,43.2-41.7c9.1,17.1,13.9,36.3,13.9,55.8C666.1,387.7,661.3,406.9,652.3,424z M546.7,241.2
		c-21.8-34.7-59.9-56.8-100.9-58.3c10.3-16.4,24.5-30.2,41.4-39.9c17.7-10.2,37.8-15.8,58.2-16c10,17.8,15.3,37.9,15.3,58.3
		C560.6,204.9,555.8,224.1,546.7,241.2z M441.1,180.3c-10.6-16.9-25.2-31.1-42.4-41.2c-17.7-10.5-37.9-16.3-58.5-17.1
		c10.2-16.2,24.3-29.9,40.8-39.6C398.8,72,419,66.3,439.7,66c10,17.8,15.3,37.9,15.3,58.4C455,143.9,450.2,163.2,441.1,180.3z
		 M290.3,82.4c16.6,9.7,30.6,23.4,40.8,39.6c-20.6,0.7-40.8,6.6-58.5,17.1c-17.2,10.1-31.8,24.3-42.4,41.2
		c-9.1-17.1-13.9-36.4-13.9-55.8c0-20.5,5.3-40.6,15.3-58.4C252.3,66.3,272.6,72,290.3,82.4z M184.2,143
		c16.9,9.8,31.2,23.6,41.5,39.9c-41,1.5-79.2,23.5-101,58.3c-9.1-17.1-13.9-36.3-13.9-55.8c0-20.4,5.3-40.6,15.3-58.3
		C146.4,127.3,166.5,132.8,184.2,143z M19,312.5c10.7,17.1,25.6,31.5,43.3,41.7c11.5,6.6,24.1,11.4,37.1,14.1
		c-13,2.7-25.6,7.5-37.1,14.1C44.6,392.6,29.7,406.9,19,424c-9.1-17.1-13.9-36.3-13.9-55.8C5.2,348.8,9.9,329.6,19,312.5z
		 M124.6,495.3c21.8,34.8,60,56.8,101,58.3c-10.2,16.4-24.5,30.1-41.5,39.9c-17.7,10.2-37.8,15.7-58.1,16
		c-10-17.8-15.3-38-15.3-58.4C110.8,531.6,115.5,512.4,124.6,495.3z M230.2,556.2c10.6,16.9,25.2,31.1,42.4,41.2
		c17.7,10.5,37.9,16.3,58.5,17.1c-10.2,16.2-24.3,29.8-40.8,39.5c-17.8,10.4-38,16.1-58.7,16.3c-10-17.7-15.3-37.9-15.3-58.3
		C216.3,592.6,221.1,573.4,230.2,556.2z M381.1,654.1c-16.5-9.7-30.6-23.3-40.8-39.5c20.6-0.8,40.7-6.6,58.5-17.1
		c17.2-10.1,31.8-24.3,42.4-41.2c9.1,17.1,13.9,36.4,13.9,55.8c0,20.4-5.3,40.6-15.3,58.3C419.1,670.1,398.8,664.5,381.1,654.1z
		 M487.1,593.5c-16.9-9.7-31.1-23.5-41.4-39.9c41.1-1.5,79.2-23.6,101-58.3c9.1,17.1,13.9,36.3,13.9,55.8c0,20.5-5.3,40.7-15.3,58.4
		C524.9,609.2,504.8,603.7,487.1,593.5z"/>
</g>
</svg>
